# xmcd
#
# Track frame offsets:
#	150
#	20019
#	33103
#	54751
#	78100
#	99290
#	122907
#	152774
#	179976
#	184879
#	203568
#	224028
#	244981
#	267451
#	281025
#	315566
#
# Disc length: 4562 seconds
#
# Revision: 1
# Processed by: cddbd v1.5.2PL0 Copyright (c) Steve Scherf et al.
# Submitted via: audiograbber 1.83.01
#
DISCID=e611d010
DTITLE=ZZ Top - Live From Texas
DYEAR=2008
DGENRE=Blues
TTITLE0=Got Me Under Pressure
TTITLE1=Waitin' For The Bus
TTITLE2=Jesus Just Left Chicago
TTITLE3=I'm Bad, I'm Nationwide
TTITLE4=Cheap Sunglasses
TTITLE5=Pearl Necklace
TTITLE6=Just Got Paid
TTITLE7=Rough Boy
TTITLE8=Blues Intro
TTITLE9=Blue Jean Blues
TTITLE10=Gimme All Your Lovin'
TTITLE11=Sharp Dressed Man
TTITLE12=Legs
TTITLE13=Tube Snake Boogie
TTITLE14=La Grange
TTITLE15=Tush
EXTD=
EXTT0=
EXTT1=
EXTT2=
EXTT3=
EXTT4=
EXTT5=
EXTT6=
EXTT7=
EXTT8=
EXTT9=
EXTT10=
EXTT11=
EXTT12=
EXTT13=
EXTT14=
EXTT15=
PLAYORDER=
